<svg xmlns="http://www.w3.org/2000/svg" width="63.086" height="42.011" viewBox="0 0 63.086 42.011">
											<g data-name="Component 100" transform="translate(-51.666 -33.067)">
												<g data-name="Group 20859" transform="translate(-269.334 -182.301)">
													<g data-name="Group 20856" transform="translate(334.861 225.743)">
														<path  data-name="Path 17917" d="M355.9,229.418c.685.46,2.158,3.942,1.722,4.571-.419.607-4.808,1.7-6.379.662a2.313,2.313,0,0,1-.7-3.407c.6-.662,4.746-2.236,5.357-1.826" transform="translate(-342.501 -228.807)" fill="#fff"/>
														<path class="fill" data-name="Path 17918" d="M353.248,235.635a4.344,4.344,0,0,1-2.314-.512,2.98,2.98,0,0,1-1.4-2.147,2.744,2.744,0,0,1,.593-2.111c.589-.653,5.088-2.592,6.093-1.917.754.506,1.758,2.877,1.989,4.1a1.648,1.648,0,0,1-.117,1.266c-.423.612-2.815,1.323-4.844,1.323m2.282-5.725a13.19,13.19,0,0,0-4.561,1.713,1.612,1.612,0,0,0-.312,1.21,1.881,1.881,0,0,0,.9,1.346c1.262.836,4.969-.059,5.582-.506a8.957,8.957,0,0,0-1.519-3.757.651.651,0,0,0-.093-.006m.13.013h0Z" transform="translate(-342.501 -228.807)" fill="#b7b7b7"/>
														<path data-name="Path 17919" d="M357.425,234.161s.813,2.427-.314,3.76-6.169-1.73-5.975-2.274.33-.845.33-.845,2.358.949,5.959-.641" transform="translate(-342.501 -228.807)" fill="#fff"/>
														<path class="fill" data-name="Path 17920" d="M356.2,238.815a8.8,8.8,0,0,1-3.675-1.268c-2.217-1.278-2.013-1.847-1.927-2.09.2-.56.34-.873.346-.886a.565.565,0,0,1,.728-.294c.019.007,2.211.826,5.52-.634a.566.566,0,0,1,.765.338c.037.112.9,2.746-.419,4.3a1.668,1.668,0,0,1-1.338.529m-4.456-3.2a9.732,9.732,0,0,0,4.294,2.062.828.828,0,0,0,.636-.127,3.342,3.342,0,0,0,.359-2.622,9.159,9.159,0,0,1-5.238.552l-.051.135" transform="translate(-342.501 -228.807)" fill="#b7b7b7"/>
														<path data-name="Path 17921" d="M356.217,238.251s-1.94,2.867-2.868,1.981-2.332-3.526-2.158-3.728a.93.93,0,0,1,.408-.266,9.621,9.621,0,0,0,4.618,2.013" transform="translate(-342.501 -228.807)" fill="#fff"/>
														<path class="fill" data-name="Path 17922" d="M353.767,240.969a1.154,1.154,0,0,1-.81-.326c-.415-.4-2.874-3.72-2.2-4.507a1.478,1.478,0,0,1,.685-.443.569.569,0,0,1,.507.105,9.1,9.1,0,0,0,4.286,1.888.566.566,0,0,1,.445.883c-.255.377-1.588,2.265-2.778,2.393a1.356,1.356,0,0,1-.14.007m-1.727-3.719a11.31,11.31,0,0,0,1.7,2.573c.2.074.828-.418,1.446-1.147a10.311,10.311,0,0,1-3.145-1.426" transform="translate(-342.501 -228.807)" fill="#b7b7b7"/>
														<path data-name="Path 17923" d="M353.246,240.173s-2.027,1.135-2.647.424-.952-3.508-.515-3.78a2.793,2.793,0,0,1,1.106-.313s-.236.5,2.056,3.669" transform="translate(-342.501 -228.807)" fill="#fff"/>
														<path class="fill" data-name="Path 17924" d="M351.245,241.4a1.361,1.361,0,0,1-1.073-.429,6.447,6.447,0,0,1-.817-3.834,1.108,1.108,0,0,1,.429-.8,3.3,3.3,0,0,1,1.373-.4.565.565,0,0,1,.6.631c.025.135.238.9,1.952,3.27a.567.567,0,0,1-.182.826,5.333,5.333,0,0,1-2.278.732m-.764-4.153a5.772,5.772,0,0,0,.545,2.979c.1.113.688.022,1.372-.267a13.916,13.916,0,0,1-1.647-2.806,1.564,1.564,0,0,0-.27.094m1.222-.5h0m0,0h0Zm.007-.016-.007.015.007-.015m0,0h0Z" transform="translate(-342.501 -228.807)" fill="#b7b7b7"/>
														<path data-name="Path 17925" d="M350.414,240.307s-3.754-.16-3.783-1.68.524-2.224.859-2.4,2.484.751,2.484.751-.39,1.061.44,3.328" transform="translate(-342.501 -228.807)" fill="#fff"/>
														<path class="fill" data-name="Path 17926" d="M350.414,240.874h-.024c-.716-.032-4.287-.283-4.325-2.236-.033-1.682.605-2.62,1.162-2.911.186-.1.573-.3,2.971.733a.564.564,0,0,1,.307.714,5.157,5.157,0,0,0,.441,2.939.567.567,0,0,1-.532.761m-2.725-4.1a2.508,2.508,0,0,0-.492,1.838c.01.51,1.246.89,2.414,1.05a6.453,6.453,0,0,1-.276-2.339,10.143,10.143,0,0,0-1.646-.549" transform="translate(-342.501 -228.807)" fill="#b7b7b7"/>
														<path data-name="Path 17927" d="M347.489,236.228s-2.7-3.2-3.813-2.613,2.168,4.092,3.012,4.13a2.512,2.512,0,0,1,.8-1.517" transform="translate(-342.501 -228.807)" fill="#fff"/>
														<path class="fill" data-name="Path 17928" d="M346.688,238.31h-.025c-1.026-.045-3.439-2.6-3.743-3.954a1.053,1.053,0,0,1,.493-1.243c1.369-.718,3.609,1.684,4.508,2.75a.566.566,0,0,1-.129.843,1.947,1.947,0,0,0-.545,1.125.567.567,0,0,1-.559.479m-2.67-4.211a8.108,8.108,0,0,0,2.295,2.857,3.01,3.01,0,0,1,.4-.755,6.887,6.887,0,0,0-2.693-2.1" transform="translate(-342.501 -228.807)" fill="#b7b7b7"/>
														<path class="fill" data-name="Path 17929" d="M346.631,238.627a3.462,3.462,0,0,1-2.714-1.146c-1.241-1.314-.761-1.962-.761-1.962l1-.006s1.416,1.959,2.53,2.231Z" transform="translate(-342.501 -228.807)" fill="#fff"/>
														<path class="fill" data-name="Path 17930" d="M346.467,239.2a4.1,4.1,0,0,1-2.962-1.33c-1.522-1.613-.882-2.583-.8-2.688a.563.563,0,0,1,.452-.229l1-.005h0a.567.567,0,0,1,.458.233,6.034,6.034,0,0,0,2.2,2.014.565.565,0,0,1,.431.586l-.057.882a.567.567,0,0,1-.5.527,2.081,2.081,0,0,1-.228.01m.164-.573h0Zm-2.97-2.545a2.688,2.688,0,0,0,.668,1.01,3.052,3.052,0,0,0,1.549.909,8.459,8.459,0,0,1-2-1.92Z" transform="translate(-342.501 -228.807)" fill="#b7b7b7"/>
													</g>
													<g data-name="Group 20857" transform="translate(327.706 220.562)">
														<path data-name="Path 17931" d="M341.9,231.869c-.576.247-3.406-.251-3.628-.789-.214-.518.9-3.772,2.213-4.344a1.759,1.759,0,0,1,2.463.961c.176.654-.533,3.952-1.048,4.172" transform="translate(-335.088 -220.261)" fill="#fff"/>
														<path class="fill" data-name="Path 17932" d="M341.366,232.5a8.767,8.767,0,0,1-2.786-.532,1.376,1.376,0,0,1-.834-.671c-.333-.809.931-4.391,2.511-5.079a2.4,2.4,0,0,1,2.062,0,2.2,2.2,0,0,1,1.174,1.338c.186.694-.42,4.431-1.372,4.84a2.041,2.041,0,0,1-.755.109m-2.558-1.669a7.141,7.141,0,0,0,2.81.53,9.685,9.685,0,0,0,.78-3.519,1.1,1.1,0,0,0-.57-.609,1.3,1.3,0,0,0-1.119.023c-.907.395-1.871,2.859-1.9,3.575" transform="translate(-335.088 -220.261)" fill="#b7b7b7"/>
														<path data-name="Path 17933" d="M338.244,230.881s-1.884-.483-2.269-1.754,3.651-3.222,3.918-2.873.4.56.4.56a6.2,6.2,0,0,0-2.053,4.067" transform="translate(-335.088 -220.261)" fill="#fff"/>
														<path class="fill" data-name="Path 17934" d="M338.244,231.447a.562.562,0,0,1-.141-.018c-.089-.023-2.2-.581-2.67-2.138-.406-1.341,1.691-2.583,2.612-3.054,1.832-.938,2.147-.525,2.3-.327.277.363.422.586.428.6a.566.566,0,0,1-.149.771,5.679,5.679,0,0,0-1.82,3.695.568.568,0,0,1-.559.476m1.175-4.58a7.061,7.061,0,0,0-2.769,1.8c-.128.179-.139.279-.133.3a2.249,2.249,0,0,0,1.3,1.163,7.275,7.275,0,0,1,1.6-3.259" transform="translate(-335.088 -220.261)" fill="#b7b7b7"/>
														<path data-name="Path 17935" d="M336.133,228.42s-1.028-2.423-.08-2.648a7.46,7.46,0,0,1,3.27.163.7.7,0,0,1,0,.37,7.307,7.307,0,0,0-3.192,2.115" transform="translate(-335.088 -220.261)" fill="#fff"/>
														<path class="fill" data-name="Path 17936" d="M336.133,228.987c-.02,0-.04,0-.061,0a.565.565,0,0,1-.46-.342c-.2-.461-.8-2.031-.375-2.875a1.022,1.022,0,0,1,.685-.545c.379-.091,3.678-.357,3.945.555a1.279,1.279,0,0,1,0,.7.567.567,0,0,1-.363.368,6.782,6.782,0,0,0-2.908,1.906.568.568,0,0,1-.462.239m.1-2.675a2.453,2.453,0,0,0,.125,1.026,7.773,7.773,0,0,1,1.629-1.077,7.551,7.551,0,0,0-1.754.051" transform="translate(-335.088 -220.261)" fill="#b7b7b7"/>
														<path data-name="Path 17937" d="M336.134,225.731s.113-1.762.823-1.864,2.631.842,2.624,1.232a2.112,2.112,0,0,1-.257.836s-.223-.358-3.19-.2" transform="translate(-335.088 -220.261)" fill="#fff"/>
														<path class="fill" data-name="Path 17938" d="M339.323,226.5a.57.57,0,0,1-.342-.115,9.125,9.125,0,0,0-2.818-.09.582.582,0,0,1-.432-.168.565.565,0,0,1-.163-.434c.034-.521.227-2.233,1.307-2.388a4.957,4.957,0,0,1,2.894,1.093.976.976,0,0,1,.378.709,2.662,2.662,0,0,1-.331,1.1.568.568,0,0,1-.481.288Zm-.48-.267c.006.011.013.02.019.029l-.019-.029m0,0,0,0h0m-1.38-1.106a8.933,8.933,0,0,1,1.534.1v0a4.536,4.536,0,0,0-1.934-.8,1.69,1.69,0,0,0-.274.713c.244-.008.467-.011.673-.011" transform="translate(-335.088 -220.261)" fill="#b7b7b7"/>
														<path data-name="Path 17939" d="M337.218,223.867s1.653-2.328,2.635-1.72,1.2,1.254,1.176,1.539-1.505,1.276-1.505,1.276a4.061,4.061,0,0,0-2.306-1.1" transform="translate(-335.088 -220.261)" fill="#fff"/>
														<path class="fill" data-name="Path 17940" d="M339.524,225.528a.565.565,0,0,1-.453-.226,3.9,3.9,0,0,0-1.979-.882.567.567,0,0,1-.336-.88c.328-.462,2.031-2.718,3.395-1.873,1.139.706,1.491,1.534,1.441,2.072-.019.207-.051.554-1.754,1.694a.564.564,0,0,1-.314.1m-1.328-1.972a5.037,5.037,0,0,1,1.372.687,8.641,8.641,0,0,0,.878-.7,2,2,0,0,0-.892-.917c-.2-.12-.791.3-1.358.927" transform="translate(-335.088 -220.261)" fill="#b7b7b7"/>
														<path data-name="Path 17941" d="M341.029,223.687s3.155-.4,3.243-1.354-3.508-.306-3.88.216a1.915,1.915,0,0,1,.637,1.138" transform="translate(-335.088 -220.261)" fill="#fff"/>
														<path class="fill" data-name="Path 17942" d="M341.029,224.253a.568.568,0,0,1-.566-.572,1.358,1.358,0,0,0-.448-.71.567.567,0,0,1-.084-.75c.524-.736,3.257-1.164,4.227-.8a.929.929,0,0,1,.678.968c-.113,1.22-2.389,1.69-3.736,1.862a.577.577,0,0,1-.071.005m.243-1.539a2.23,2.23,0,0,1,.182.335,7.218,7.218,0,0,0,2.069-.631,6.928,6.928,0,0,0-2.251.3" transform="translate(-335.088 -220.261)" fill="#b7b7b7"/>
														<path data-name="Path 17943" d="M339.853,222.148a2.631,2.631,0,0,1,1.853-1.258c1.351-.249,1.566.325,1.566.325l-.411.642a5.23,5.23,0,0,0-2.468.692Z" transform="translate(-335.088 -220.261)" fill="#fff"/>
														<path class="fill" data-name="Path 17944" d="M340.392,223.115a.561.561,0,0,1-.337-.112l-.54-.4a.565.565,0,0,1-.169-.706,3.2,3.2,0,0,1,2.256-1.563c1.731-.317,2.136.513,2.2.683a.567.567,0,0,1-.053.505l-.41.642a.57.57,0,0,1-.448.26,4.491,4.491,0,0,0-2.109.539.565.565,0,0,1-.389.154" transform="translate(-335.088 -220.261)" fill="#b7b7b7"/>
													</g>
													<path data-name="Path 17945" d="M340.308,246.481a12.855,12.855,0,0,1,9.385,0" transform="translate(-5.959 -5.275)" fill="#fff"/>
													<g data-name="Group 20858" transform="translate(323.886 232.225)">
														<path  data-name="Path 17946" d="M329.222,246.481s4-5.217,12.756-6.361c13.075-1.708,17.491,4.476,17.491,6.361Z" transform="translate(-328.655 -236.832)" fill="#fff"/>
														<path class="fill" data-name="Path 17947" d="M359.468,247.046H329.221a.566.566,0,0,1-.449-.91c.169-.221,4.242-5.416,13.132-6.577,9.239-1.207,13.922,1.511,15.89,3.238,1.654,1.452,2.24,2.891,2.24,3.683a.565.565,0,0,1-.566.566m-28.941-1.132h28.245a6.175,6.175,0,0,0-1.725-2.266c-1.825-1.6-6.2-4.117-15-2.967a20.408,20.408,0,0,0-11.524,5.233" transform="translate(-328.655 -236.832)" fill="#b7b7b7"/>
														<path  data-name="Path 17948" d="M347.22,246.481s5.124-9.083,15.136-9.083c10.69,0,13.722,6.02,13.722,9.083h-8.422s-.294-3-5.6-3c-3.946,0-7.067,3-7.067,3Z" transform="translate(-328.655 -236.832)" fill="#fff"/>
														<path class="fill" data-name="Path 17949" d="M376.077,247.046h-8.421a.566.566,0,0,1-.564-.511c-.012-.1-.365-2.492-5.031-2.492-3.663,0-6.646,2.817-6.675,2.846a.574.574,0,0,1-.393.157h-7.774a.565.565,0,0,1-.493-.844c.053-.094,5.4-9.37,15.629-9.37,11.721,0,14.288,6.964,14.288,9.648a.565.565,0,0,1-.566.566m-7.982-1.132h7.377c-.345-2.655-3.1-7.95-13.117-7.95-7.76,0-12.543,5.747-14.092,7.95h6.511a11.841,11.841,0,0,1,7.287-3c4.455,0,5.7,2.026,6.034,3" transform="translate(-328.655 -236.832)" fill="#b7b7b7"/>
														<path data-name="Path 17950" d="M351.226,246.481a15.1,15.1,0,0,1,12.367-6.125,9.291,9.291,0,0,1,8.892,6.125" transform="translate(-328.655 -236.832)" fill="#fff"/>
														<path class="fill" data-name="Path 17951" d="M372.485,247.046a.566.566,0,0,1-.54-.4,8.657,8.657,0,0,0-8.353-5.73,14.668,14.668,0,0,0-11.891,5.866.566.566,0,0,1-.951-.613,15.53,15.53,0,0,1,12.842-6.385,9.94,9.94,0,0,1,9.433,6.52.565.565,0,0,1-.54.737" transform="translate(-328.655 -236.832)" fill="#b7b7b7"/>
														<path data-name="Path 17952" d="M334.157,246.481s3.109-3.77,10.53-3.77,8.952,3.77,8.952,3.77" transform="translate(-328.655 -236.832)" fill="#fff"/>
														<path class="fill" data-name="Path 17953" d="M353.639,247.046a.566.566,0,0,1-.525-.353c-.058-.135-1.537-3.416-8.427-3.416-7.032,0-10.065,3.53-10.1,3.565a.566.566,0,0,1-.872-.722c.134-.163,3.367-3.975,10.967-3.975,7.713,0,9.408,3.954,9.476,4.123a.564.564,0,0,1-.524.778" transform="translate(-328.655 -236.832)" fill="#fe9d2b"/>
														<path class="fill" data-name="Path 17954" d="M349.694,247.046a.6.6,0,0,1-.194-.033,12.35,12.35,0,0,0-8.945-.023.566.566,0,1,1-.494-1.019,13.326,13.326,0,0,1,9.826-.023.566.566,0,0,1-.193,1.1" transform="translate(-328.655 -236.832)" fill="#fe9d2b"/>
													</g>
													<path data-name="Path 17955" d="M351.783,246.481H326.015c0,5.121,3.207,14.6,15.419,19.022h19.43c11.119-4.063,16.686-13.9,16.686-19.022Z" transform="translate(-4.448 -8.691)" fill="#fff"/>
													<path class="fill" data-name="Path 17956" d="M360.863,266.07h-19.43a.571.571,0,0,1-.192-.034c-15.349-5.551-15.792-18.138-15.792-19.555a.565.565,0,0,1,.566-.566H377.55a.565.565,0,0,1,.566.566c0,5.584-5.928,15.486-17.058,19.554a.594.594,0,0,1-.2.035m-19.33-1.133h19.229a27.213,27.213,0,0,0,12.166-8.9c2.328-3.018,3.835-6.4,4.033-9H326.6c.159,2.753,1.654,13.042,14.934,17.891" transform="translate(-4.448 -8.691)" fill="#b7b7b7"/>
													<path class="fill" data-name="Path 17957" d="M340.287,227.362l50.46-6.792c.251-.035.472.043.488.173l.144,1.124c.016.13-.178.261-.43.29l-50.55,6.086c-.245.029-.454-.049-.47-.175l-.053-.418C339.86,227.524,340.042,227.4,340.287,227.362Z" transform="translate(-7.293)" fill="#b7b7b7"/>
													<path class="fill" data-name="Path 17958" d="M340.034,225.224l49.956-9.839c.249-.05.474.014.5.143l.211,1.113c.025.129-.161.271-.411.316L340.2,226.1c-.243.044-.456-.022-.48-.147l-.078-.413C339.618,225.411,339.793,225.272,340.034,225.224Z" transform="translate(-6.836)" fill="#b7b7b7"/>
												</g>
											</g>
										</svg>